<svg width="3224" height="890" viewBox="0 0 3224 890" fill="none" xmlns="http://www.w3.org/2000/svg">
<g clip-path="url(#clip0_4_4)">
<path d="M251.58 193.182V775H128.568V193.182H251.58ZM330.628 294.602V193.182H808.469V294.602H630.344V775H508.753V294.602H330.628ZM1093.41 775H887.162V193.182H1095.12C1153.64 193.182 1204.02 204.83 1246.25 228.125C1288.49 251.231 1320.97 284.47 1343.7 327.841C1366.61 371.212 1378.07 423.106 1378.07 483.523C1378.07 544.129 1366.61 596.212 1343.7 639.773C1320.97 683.333 1288.3 716.761 1245.68 740.057C1203.26 763.352 1152.5 775 1093.41 775ZM1010.17 669.602H1088.3C1124.66 669.602 1155.25 663.163 1180.06 650.284C1205.06 637.216 1223.81 617.045 1236.31 589.773C1249 562.311 1255.34 526.894 1255.34 483.523C1255.34 440.53 1249 405.398 1236.31 378.125C1223.81 350.852 1205.15 330.777 1180.34 317.898C1155.53 305.019 1124.95 298.58 1088.58 298.58H1010.17V669.602ZM1675.44 775H1469.19V193.182H1677.15C1735.67 193.182 1786.05 204.83 1828.28 228.125C1870.52 251.231 1903 284.47 1925.73 327.841C1948.64 371.212 1960.1 423.106 1960.1 483.523C1960.1 544.129 1948.64 596.212 1925.73 639.773C1903 683.333 1870.33 716.761 1827.72 740.057C1785.29 763.352 1734.53 775 1675.44 775ZM1592.2 669.602H1670.33C1706.69 669.602 1737.28 663.163 1762.09 650.284C1787.09 637.216 1805.84 617.045 1818.34 589.773C1831.03 562.311 1837.38 526.894 1837.38 483.523C1837.38 440.53 1831.03 405.398 1818.34 378.125C1805.84 350.852 1787.19 330.777 1762.38 317.898C1737.56 305.019 1706.98 298.58 1670.61 298.58H1592.2V669.602ZM2118.7 775H1986.88L2187.73 193.182H2346.25L2546.82 775H2415L2269.26 326.136H2264.72L2118.7 775ZM2110.46 546.307H2421.82V642.33H2110.46V546.307ZM2717.13 775H2585.32L2786.17 193.182H2944.69L3145.26 775H3013.44L2867.7 326.136H2863.16L2717.13 775ZM2708.89 546.307H3020.26V642.33H2708.89V546.307Z" fill="black"/>
</g>
<defs>
<clipPath id="clip0_4_4">
<rect width="3224" height="890" fill="white"/>
</clipPath>
</defs>
</svg>
