<?xml version="1.0" encoding="utf-8"?>
<!-- Generator: Adobe Illustrator 24.2.0, SVG Export Plug-In . SVG Version: 6.00 Build 0)  -->
<svg version="1.1" id="레이어_1" xmlns="http://www.w3.org/2000/svg" xmlns:xlink="http://www.w3.org/1999/xlink" x="0px"
	 y="0px" viewBox="0 0 735.5 160" style="enable-background:new 0 0 735.5 160;" xml:space="preserve">
<g>
	<g>
		<g>
			<g>
				<path style="fill:#000;" d="M603.7,61.7c1.3,0.7,2.3,1.8,3,3.1c0.7,1.3,1.1,2.8,1.1,4.4c0,1.6-0.4,3.1-1.1,4.4
					c-0.7,1.3-1.7,2.3-3,3.1c-1.3,0.7-2.8,1.1-4.4,1.1s-3.1-0.4-4.4-1.1c-1.3-0.7-2.3-1.8-3.1-3.1c-0.7-1.3-1.1-2.8-1.1-4.4
					c0-1.6,0.4-3.1,1.1-4.4c0.7-1.3,1.8-2.3,3.1-3.1c1.3-0.7,2.8-1.1,4.4-1.1S602.4,60.9,603.7,61.7z M604,74
					c1.2-1.2,1.8-2.9,1.8-4.9c0-2-0.6-3.6-1.8-4.9c-1.2-1.2-2.8-1.9-4.8-1.9c-2,0-3.6,0.6-4.8,1.9c-1.2,1.2-1.8,2.9-1.8,4.9
					c0,2,0.6,3.6,1.8,4.9c1.2,1.2,2.8,1.9,4.8,1.9C601.2,75.9,602.8,75.2,604,74z M602.6,69.1c-0.3,0.5-0.7,0.8-1.2,1l2.2,3.4h-3.1
					l-1.8-3.1h-0.3v3.1h-2.6v-8.8h4.2c1,0,1.7,0.3,2.3,0.8c0.6,0.5,0.9,1.2,0.9,2.1C603,68.1,602.9,68.6,602.6,69.1z M598.3,68.3
					h1.4c0.2,0,0.4-0.1,0.6-0.2c0.2-0.1,0.2-0.3,0.2-0.5s-0.1-0.4-0.2-0.5c-0.2-0.1-0.3-0.2-0.6-0.2h-1.4V68.3z"/>
			</g>
			<path style="fill:#000;" d="M403.2,63.5c3,1.6,5.4,3.9,7.1,6.8c1.7,2.9,2.5,6.3,2.5,10.1c0,3.8-0.8,7.1-2.5,10.1
				c-1.7,2.9-4,5.2-7.1,6.8c-3.1,1.6-6.6,2.4-10.7,2.4H378V61.1h14.5C396.6,61.1,400.1,61.9,403.2,63.5z M400.2,88.7
				c2-1.9,3-4.7,3-8.3s-1-6.3-3-8.3c-2-2-4.8-3-8.3-3h-4.5v22.5h4.5C395.4,91.6,398.2,90.6,400.2,88.7z"/>
			<path style="fill:#000;" d="M428.8,68.6v7.8h12.6v7.3h-12.6v8.5h14.3v7.5h-23.7V61.1h23.7v7.5H428.8z"/>
			<path style="fill:#000;" d="M457,98.8c-2.2-0.9-4-2.3-5.4-4.1c-1.3-1.8-2-4-2.1-6.5h10c0.1,1.4,0.6,2.5,1.5,3.3
				c0.8,0.8,1.9,1.1,3.3,1.1c1.4,0,2.5-0.3,3.3-1c0.8-0.6,1.2-1.5,1.2-2.7c0-1-0.3-1.7-1-2.4c-0.6-0.6-1.4-1.1-2.4-1.5
				c-0.9-0.4-2.3-0.9-4-1.4c-2.5-0.8-4.5-1.5-6.1-2.3c-1.6-0.8-2.9-1.9-4.1-3.4c-1.1-1.5-1.7-3.5-1.7-5.9c0-3.6,1.3-6.4,3.9-8.5
				c2.6-2,6-3.1,10.2-3.1c4.3,0,7.7,1,10.3,3.1c2.6,2,4,4.9,4.2,8.5H468c-0.1-1.2-0.5-2.2-1.4-2.9c-0.8-0.7-1.9-1.1-3.2-1.1
				c-1.1,0-2.1,0.3-2.8,0.9c-0.7,0.6-1,1.5-1,2.6c0,1.2,0.6,2.2,1.8,2.9c1.2,0.7,3,1.5,5.5,2.3c2.5,0.8,4.5,1.7,6.1,2.4
				c1.6,0.8,2.9,1.9,4,3.4c1.1,1.5,1.7,3.4,1.7,5.7c0,2.2-0.6,4.2-1.7,6c-1.1,1.8-2.7,3.2-4.9,4.3c-2.1,1.1-4.6,1.6-7.5,1.6
				C461.7,100.1,459.2,99.7,457,98.8z"/>
			<path style="fill:#000;" d="M495.2,61.1v38.7h-9.4V61.1H495.2z"/>
			<path style="fill:#000;" d="M529.1,73.3c-0.7-1.3-1.7-2.3-3-2.9c-1.3-0.7-2.8-1-4.6-1c-3,0-5.5,1-7.3,3c-1.8,2-2.8,4.7-2.8,8
				c0,3.6,1,6.3,2.9,8.3c1.9,2,4.6,3,8,3c2.3,0,4.3-0.6,5.9-1.8c1.6-1.2,2.8-2.9,3.5-5.1h-11.9V78h20.5v8.8
				c-0.7,2.4-1.9,4.5-3.6,6.6c-1.7,2-3.8,3.7-6.4,4.9c-2.6,1.2-5.5,1.9-8.7,1.9c-3.8,0-7.2-0.8-10.2-2.5c-3-1.7-5.3-4-7-7
				c-1.7-3-2.5-6.4-2.5-10.2c0-3.8,0.8-7.2,2.5-10.2c1.7-3,4-5.3,7-7c3-1.7,6.4-2.5,10.2-2.5c4.6,0,8.5,1.1,11.7,3.4
				c3.2,2.2,5.3,5.3,6.3,9.3H529.1z"/>
			<path style="fill:#000;" d="M581.3,99.8h-9.4l-15.7-23.8v23.8h-9.4V61.1h9.4l15.7,24v-24h9.4V99.8z"/>
		</g>
		<g>
			<path style="fill:#000;" d="M387.4,121v38.7H378V121H387.4z"/>
			<path style="fill:#000;" d="M423.4,121v7.5h-10.2v31.1h-9.4v-31.1h-10.2V121H423.4z"/>
			<path style="fill:#000;" d="M454.7,123.4c3,1.6,5.4,3.9,7.1,6.8c1.7,2.9,2.5,6.3,2.5,10.1c0,3.8-0.8,7.1-2.5,10.1
				c-1.7,2.9-4,5.2-7.1,6.8c-3.1,1.6-6.6,2.4-10.7,2.4h-14.5V121H444C448.1,121,451.7,121.8,454.7,123.4z M451.7,148.5
				c2-1.9,3-4.7,3-8.3c0-3.6-1-6.3-3-8.3c-2-2-4.8-3-8.3-3H439v22.5h4.5C447,151.5,449.7,150.5,451.7,148.5z"/>
			<path style="fill:#000;" d="M496.1,123.4c3,1.6,5.4,3.9,7.1,6.8c1.7,2.9,2.5,6.3,2.5,10.1c0,3.8-0.8,7.1-2.5,10.1
				c-1.7,2.9-4,5.2-7.1,6.8c-3.1,1.6-6.6,2.4-10.7,2.4h-14.5V121h14.5C489.5,121,493.1,121.8,496.1,123.4z M493.1,148.5
				c2-1.9,3-4.7,3-8.3c0-3.6-1-6.3-3-8.3c-2-2-4.8-3-8.3-3h-4.5v22.5h4.5C488.4,151.5,491.2,150.5,493.1,148.5z"/>
			<path style="fill:#000;" d="M536.4,152.8H522l-2.3,6.8h-9.9l14-38.7h10.9l14,38.7h-10L536.4,152.8z M534,145.5l-4.8-14.2
				l-4.7,14.2H534z"/>
			<path style="fill:#000;" d="M578.4,152.8h-14.4l-2.3,6.8h-9.9l14-38.7h10.9l14,38.7h-10L578.4,152.8z M575.9,145.5l-4.8-14.2
				l-4.7,14.2H575.9z"/>
			<path style="fill:#000;" d="M602.7,158.6c-2.2-0.9-4-2.3-5.4-4.1c-1.3-1.8-2-4-2.1-6.5h10c0.1,1.4,0.6,2.5,1.5,3.3
				c0.8,0.8,1.9,1.1,3.3,1.1c1.4,0,2.5-0.3,3.3-1c0.8-0.6,1.2-1.5,1.2-2.7c0-1-0.3-1.7-1-2.4c-0.6-0.6-1.4-1.1-2.4-1.5
				c-0.9-0.4-2.3-0.9-4-1.4c-2.5-0.8-4.5-1.5-6.1-2.3c-1.6-0.8-2.9-1.9-4.1-3.4c-1.1-1.5-1.7-3.5-1.7-5.9c0-3.6,1.3-6.4,3.9-8.5
				c2.6-2,6-3.1,10.2-3.1c4.3,0,7.7,1,10.3,3.1c2.6,2,4,4.9,4.2,8.5h-10.2c-0.1-1.2-0.5-2.2-1.4-2.9c-0.8-0.7-1.9-1.1-3.2-1.1
				c-1.1,0-2.1,0.3-2.8,0.9c-0.7,0.6-1,1.5-1,2.6c0,1.2,0.6,2.2,1.8,2.9c1.2,0.7,3,1.5,5.5,2.3c2.5,0.8,4.5,1.7,6.1,2.4
				c1.6,0.8,2.9,1.9,4,3.4c1.1,1.5,1.7,3.4,1.7,5.7c0,2.2-0.6,4.2-1.7,6c-1.1,1.8-2.7,3.2-4.9,4.3c-2.1,1.1-4.6,1.6-7.5,1.6
				C607.4,160,604.9,159.5,602.7,158.6z"/>
			<path style="fill:#000;" d="M639.8,157.5c-3-1.7-5.4-4-7.2-7.1c-1.8-3-2.7-6.4-2.7-10.2s0.9-7.2,2.7-10.2c1.8-3,4.2-5.4,7.2-7
				c3-1.7,6.4-2.5,10-2.5c3.6,0,7,0.8,10,2.5c3,1.7,5.4,4,7.2,7c1.7,3,2.6,6.4,2.6,10.2s-0.9,7.2-2.6,10.2c-1.8,3-4.1,5.4-7.2,7.1
				c-3,1.7-6.3,2.5-10,2.5C646.2,160,642.8,159.2,639.8,157.5z M657.2,148.3c1.9-2.1,2.8-4.8,2.8-8.1c0-3.4-0.9-6.1-2.8-8.2
				c-1.9-2-4.3-3.1-7.4-3.1c-3.1,0-5.6,1-7.5,3c-1.9,2-2.8,4.8-2.8,8.2c0,3.4,0.9,6.1,2.8,8.2c1.9,2,4.3,3.1,7.5,3.1
				C652.9,151.4,655.3,150.4,657.2,148.3z"/>
			<path style="fill:#000;" d="M701.3,121v7.5h-15.7v8.1h11.8v7.3h-11.8v15.6h-9.4V121H701.3z"/>
			<path style="fill:#000;" d="M735.5,121v7.5h-10.2v31.1h-9.4v-31.1h-10.2V121H735.5z"/>
		</g>
	</g>
	<g>
		<circle style="fill:#000;" cx="102.7" cy="25" r="25"/>
		<polygon style="fill:#000;" points="157.7,160 77.7,160 77.7,80 		"/>
		<rect y="60" style="fill:#000;" width="50" height="100"/>
		<circle style="fill:#000;" cx="25" cy="25" r="25"/>
		<path style="fill:#000;" d="M220.1,65.6c-6.9-3.6-14.7-5.6-23-5.6h-27v100h27c8.3,0,16.1-2,23-5.6c16-8.3,27-25.1,27-44.4
			S236.1,73.9,220.1,65.6z"/>
		<polygon style="fill:#000;" points="250.1,160 300.1,60 350.1,160 		"/>
	</g>
</g>
</svg>
